<?xml version="1.0" encoding="UTF-8"?>
<svg width="24px" height="24px" viewBox="0 0 24 24" version="1.1" xmlns="http://www.w3.org/2000/svg" xmlns:xlink="http://www.w3.org/1999/xlink">
    <!-- Generator: Sketch 51.3 (57544) - http://www.bohemiancoding.com/sketch -->
    <title>fic-anchor</title>
    <desc>Created with Sketch.</desc>
    <defs>
        <linearGradient x1="50%" y1="0%" x2="50%" y2="100%" id="linearGradient-1">
            <stop stop-color="#8CA0B3" offset="0%"></stop>
            <stop stop-color="#A2B6C9" offset="100%"></stop>
        </linearGradient>
    </defs>
    <g id="ASSO-Webapp" stroke="none" stroke-width="1" fill="none" fill-rule="evenodd">
        <g id="Footer_M_D_1.0" transform="translate(-128.000000, -652.000000)" fill-rule="nonzero">
            <g id="fic-anchor" transform="translate(128.000000, 652.000000)">
                <rect id="Rectangle-3-Copy-2" x="0" y="0" width="24" height="24"></rect>
                <path d="M17.3036033,13.6785879 L17.3036685,13.6785 C17.5167989,12.4697088 17.3843207,11.2094451 16.9028424,10.0633352 L18.0704728,8.88201648 C18.9841902,7.95828022 18.9841902,6.45588462 18.0704728,5.53212637 C17.1567772,4.60836813 15.670712,4.60836813 14.7569946,5.53212637 L10.781125,9.55168681 C9.86740761,10.4754231 9.86740761,11.9778187 10.781125,12.9015769 C11.0970163,13.2209396 11.4816902,13.4278385 11.8867554,13.5257088 L9.75869022,15.6780165 C9.41477717,15.4668077 9.08953804,15.2126978 8.79316848,14.9122143 C6.78314674,12.8810055 6.78314674,9.5748956 8.79316848,7.54364286 L12.769038,3.52408242 C14.779038,1.49197253 18.049212,1.49197253 20.0583859,3.52408242 C22.0684076,5.55529121 22.0684076,8.8614011 20.0583859,10.8926538 L17.3036033,13.6785879 Z M6.26229891,10.1018846 L6.2622337,10.1019505 C6.04910326,11.3107418 6.18155978,12.5710055 6.66475543,13.7179945 L5.49627717,14.898456 C4.58255978,15.8221923 4.58255978,17.3245879 5.49627717,18.2483462 C6.40997283,19.1721044 7.89603804,19.1721044 8.80975543,18.2483462 L12.785625,14.2287857 C13.6993424,13.3050495 13.6993424,11.8026538 12.785625,10.8788956 C12.4697337,10.559533 12.0850598,10.3526341 11.6799946,10.2547637 L13.8080598,8.10245604 C14.151125,8.31366484 14.4763641,8.56777473 14.7727337,8.86825824 C16.7819076,10.899467 16.7827554,14.2055769 14.7727337,16.2368297 L10.7968641,20.2563901 C8.78686413,22.2885 5.51669022,22.2885 3.5075163,20.2563901 C1.49749457,18.2243022 1.49749457,14.9181923 3.5075163,12.8869396 L6.26229891,10.1018846 Z" id="Combined-Shape" fill="url(#linearGradient-1)"></path>
            </g>
        </g>
    </g>
</svg>