<?xml version="1.0" encoding="UTF-8"?>
<svg fill="#1400c3" width="100pt" height="100pt" version="1.1" viewBox="0 0 100 100" xmlns="http://www.w3.org/2000/svg">
 <g>
  <path d="m30.93 53.172h-20.52c-1.6602 0-3 1.3398-3 3v26.66c0 1.6602 1.3398 3 3 3h20.52c1.6484 0 3-1.3398 3-3v-26.66c0-1.6602-1.3516-3-3-3zm-3 26.656h-14.52v-20.656h14.52z"/>
  <path d="m60.922 43.5h-20.512c-1.6602 0-3 1.3398-3 3v36.328c0 1.6602 1.3398 3 3 3h20.512c1.6602 0 3-1.3398 3-3v-36.328c0-1.6602-1.3438-3-3-3zm-3 36.328h-14.512v-30.328h14.512z"/>
  <path d="m90.922 67.828h-20.523c-1.6484 0-3 1.3516-3 3v12c0 1.6602 1.3516 3 3 3h20.52c1.6602 0 3-1.3398 3-3v-12c0.003906-1.6484-1.3398-3-2.9961-3zm-3 12h-14.523v-6h14.52z"/>
  <path d="m62.5 25.59l-4.4688 3.2305 1.6094 4.9297c0.17188 0.37891 0.26953 0.80078 0.26953 1.25 0 1.6602-1.3398 3-3 3h-0.019531c-0.62109 0-1.2383-0.19141-1.7695-0.57812l-4.4492-3.25-4.4609 3.25c-0.53125 0.38672-1.1523 0.57812-1.7695 0.57812-0.62109 0-1.2383-0.19141-1.7617-0.57031-1.0586-0.76953-1.4883-2.1289-1.0898-3.3594l1.7188-5.25-4.4688-3.2305c-1.0586-0.76172-1.5-2.1211-1.1016-3.3594 0.39844-1.2305 1.5508-2.0703 2.8516-2.0703h0.011718l5.5195 0.011719 1.6914-5.25c0.39844-1.2383 1.5508-2.0781 2.8594-2.0781 1.3008 0 2.4492 0.83984 2.8516 2.0781l1.6914 5.25 5.5195-0.011719h0.011719c1.3008 0 2.4492 0.83984 2.8516 2.0703 0.39062 1.2383-0.046875 2.5977-1.0977 3.3594z"/>
 </g>
</svg>
