<?xml version="1.0" encoding="UTF-8"?>
<svg fill="#1400c3" width="100pt" height="100pt" version="1.1" viewBox="0 0 100 100" xmlns="http://www.w3.org/2000/svg">
 <g>
  <path d="m62.555 22.391c4.7227 0 9.2188 1.8633 12.559 5.2031 3.3398 3.3398 5.2031 7.8359 5.2031 12.559s-1.8633 9.2188-5.2031 12.559c-3.3398 3.3398-7.8359 5.2031-12.559 5.2031-4.7227 0-9.2188-1.8633-12.559-5.2031-3.3398-3.3398-5.2031-7.8359-5.2031-12.559s1.8633-9.2188 5.2031-12.559 7.8359-5.2031 12.559-5.2031zm4.8711 12.887c-1.3008-1.3008-3.0352-2.0195-4.8711-2.0195-1.8359 0-3.5742 0.71875-4.8711 2.0195-1.3008 1.3008-2.0195 3.0352-2.0195 4.8711 0 1.8359 0.71875 3.5742 2.0195 4.8711 1.3008 1.3008 3.0352 2.0195 4.8711 2.0195 1.8359 0 3.5742-0.71875 4.8711-2.0195 1.3008-1.3008 2.0195-3.0352 2.0195-4.8711 0-1.8359-0.71875-3.5742-2.0195-4.8711z" fill-rule="evenodd"/>
  <path d="m64.375 25.117h-4.3555v-9.9102h5.0742v9.9102z"/>
  <path d="m60.734 55.184h4.3594v9.9102h-5.0742v-9.9102z"/>
  <path d="m56.613 26.219-3.1523 1.8203-0.61719 0.35547-0.35938-0.62109-4.2383-7.3398-0.35547-0.61719 0.62109-0.35547 3.1484-1.8203 0.62109-0.35938 0.35547 0.62109 4.2383 7.3398 0.35938 0.61719z"/>
  <path d="m68.5 54.082 3.1523-1.8203 0.61719-0.35938 0.35938 0.62109 4.2344 7.3359 0.35938 0.62109-0.62109 0.35938-3.1523 1.8203-0.62109 0.35547-0.35547-0.61719-4.2383-7.3398-0.35547-0.61719z"/>
  <path d="m50.445 31.055-1.8203 3.1523-0.35938 0.62109-0.61719-0.35938-7.3398-4.2344-0.62109-0.35938 0.35938-0.61719 1.8164-3.1523 0.35938-0.62109 0.62109 0.35547 7.3398 4.2383 0.61719 0.35547z"/>
  <path d="m74.668 49.246 1.8164-3.1523 0.35938-0.62109 0.62109 0.35547 7.3398 4.2383 0.61719 0.35938-0.35547 0.61719-1.8203 3.1523-0.35938 0.62109-0.62109-0.35938-7.3359-4.2344-0.62109-0.35938z"/>
  <path d="m47.523 38.332v4.3555h-9.9141v-5.0742h9.9141z"/>
  <path d="m77.59 41.969v-4.3555h9.9102v5.0742h-9.9102z"/>
  <path d="m48.625 46.09 1.8203 3.1523 0.35938 0.62109-0.62109 0.35938-7.3398 4.2344-0.62109 0.35938-0.35938-0.62109-1.8164-3.1523-0.35938-0.61719 0.62109-0.35938 7.3398-4.2383 0.62109-0.35547z"/>
  <path d="m76.484 34.207-1.8164-3.1523-0.35938-0.62109 0.62109-0.35547 7.3359-4.2383 0.62109-0.35938 0.35938 0.62109 1.8203 3.1523 0.35938 0.62109-0.62109 0.35938-7.3398 4.2344-0.62109 0.35938z"/>
  <path d="m53.461 52.262 3.1523 1.8203 0.62109 0.35938-0.35938 0.61719-4.2383 7.3398-0.35547 0.61719-0.62109-0.35547-3.1484-1.8203-0.62109-0.35938 0.35547-0.61719 4.2383-7.3398 0.35938-0.62109z"/>
  <path d="m71.652 28.039-3.1523-1.8203-0.62109-0.35938 0.35547-0.62109 4.2383-7.3359 0.35547-0.62109 0.62109 0.35938 3.1523 1.8203 0.62109 0.35547-0.35938 0.61719-4.2344 7.3398-0.35938 0.62109z"/>
  <path d="m29.914 54.98c3.2969 0 6.4375 1.3008 8.7695 3.6328 2.332 2.332 3.6328 5.4727 3.6328 8.7695 0 3.2969-1.3008 6.4375-3.6328 8.7695-2.332 2.332-5.4727 3.6328-8.7695 3.6328-3.2969 0-6.4375-1.3008-8.7695-3.6328-2.332-2.332-3.6328-5.4727-3.6328-8.7695 0-3.2969 1.3008-6.4375 3.6328-8.7695s5.4727-3.6328 8.7695-3.6328zm3.4023 8.9961c-0.90625-0.90625-2.1172-1.4102-3.4023-1.4102-1.2812 0-2.4961 0.5-3.4023 1.4102-0.90625 0.90625-1.4102 2.1172-1.4102 3.4023 0 1.2812 0.5 2.4961 1.4102 3.4023 0.90625 0.90625 2.1172 1.4102 3.4023 1.4102 1.2812 0 2.4961-0.5 3.4023-1.4102 0.90625-0.90625 1.4102-2.1172 1.4102-3.4023 0-1.2812-0.5-2.4961-1.4102-3.4023z" fill-rule="evenodd"/>
  <path d="m31.188 56.883h-3.043v-6.918h3.543v6.918z"/>
  <path d="m28.645 77.875h3.043v6.918h-3.543v-6.918z"/>
  <path d="m25.766 57.652-2.1992 1.2695-0.43359 0.25-0.25-0.43359-2.957-5.1211-0.25-0.43359 0.43359-0.25 2.1992-1.2695 0.43359-0.25 0.25 0.43359 2.957 5.125 0.25 0.42969z"/>
  <path d="m34.066 77.105 2.1992-1.2695 0.43359-0.25 0.24609 0.42969 2.9609 5.125 0.25 0.43359-0.43359 0.25-2.2031 1.2695-0.42969 0.25-0.25-0.42969-2.957-5.125-0.25-0.43359z"/>
  <path d="m21.461 61.027-1.2734 2.2031-0.25 0.43359-0.42969-0.25-5.125-2.957-0.43359-0.25 0.25-0.43359 1.2695-2.1992 0.25-0.43359 0.43359 0.25 5.125 2.957 0.43359 0.25z"/>
  <path d="m38.371 73.73 1.2695-2.2031 0.25-0.43359 0.43359 0.25 5.125 2.9609 0.43359 0.24609-0.25 0.43359-1.2734 2.1992-0.25 0.4375-0.43359-0.25-5.1211-2.9609-0.43359-0.25z"/>
  <path d="m19.418 66.109v3.043h-6.918v-3.5469h6.918z"/>
  <path d="m40.41 68.648v-3.043h6.9219v3.5469h-6.9219z"/>
  <path d="m20.188 71.527 1.2734 2.1992 0.25 0.43359-0.43359 0.25-5.125 2.9609-0.43359 0.25-0.25-0.4375-1.2695-2.1992-0.25-0.42969 0.43359-0.25 5.125-2.9609 0.43359-0.25z"/>
  <path d="m39.641 63.23-1.2695-2.2031-0.25-0.42969 0.43359-0.25 5.1211-2.957 0.43359-0.25391 0.25 0.43359 1.2734 2.2031 0.25 0.43359-0.43359 0.25-5.125 2.957-0.43359 0.25z"/>
  <path d="m23.566 75.836 2.1992 1.2695 0.43359 0.25-0.25 0.43359-2.957 5.125-0.25 0.42969-0.43359-0.25-2.1992-1.2695-0.43359-0.25 0.25-0.42969 2.957-5.125 0.25-0.43359z"/>
  <path d="m36.266 58.922-2.1992-1.2695-0.43359-0.25 0.25-0.43359 2.957-5.125 0.25-0.42969 0.42969 0.25 2.2031 1.2695 0.43359 0.25-0.25 0.43359-2.9609 5.1211-0.25 0.43359z"/>
 </g>
</svg>
