<?xml version="1.0" encoding="UTF-8"?>
<svg width="711px" height="34px" viewBox="0 0 711 34" version="1.1" xmlns="http://www.w3.org/2000/svg" xmlns:xlink="http://www.w3.org/1999/xlink">
    <!-- Generator: Sketch 52.5 (67469) - http://www.bohemiancoding.com/sketch -->
    <title>Group 9</title>
    <desc>Created with Sketch.</desc>
    <g id="SIV-MODIFS" stroke="none" stroke-width="1" fill="none" fill-rule="evenodd">
        <g id="Desktop-HD" transform="translate(-365.000000, -291.000000)">
            <g id="Group-9" transform="translate(366.000000, 292.000000)">
                <circle id="Oval" stroke="#1400c3" stroke-width="2" fill-rule="nonzero" cx="16" cy="16" r="16"></circle>
                <circle id="Oval-Copy" stroke="#1400c3" stroke-width="2" fill-rule="nonzero" cx="354" cy="16" r="16"></circle>
                <circle id="Oval-Copy-2" stroke="#1400c3" stroke-width="2" fill-rule="nonzero" cx="693" cy="16" r="16"></circle>
                <polygon id="1" fill="#1400c3" points="17.704541 10 17.704541 21.6363525 15.6874974 21.6363525 15.6874974 12.124998 15.6193157 12.124998 13.8579537 13.1477243 13 11.6477257 15.8068155 10"></polygon>
                <path d="M357.943174,20.1420472 L357.943174,22 L350.005681,22 L350.005681,20.4034106 L353.892041,16.477278 C355.07954,15.2613701 355.517039,14.4545527 355.517039,13.7215988 C355.517039,12.6647816 354.903404,11.954555 353.869314,11.954555 C352.727269,11.954555 352.193179,12.9375086 352.193179,14.0738712 L350.068181,14.0738712 C350.068181,12.0227368 351.471589,10.2045567 353.909086,10.2045567 C356.267039,10.2045567 357.636356,11.50001 357.636356,13.5454626 C357.636356,15.0909157 356.562493,16.4090962 355.107949,17.9659129 L353.380678,19.7784112 C353.210224,19.9488656 353.124996,20.0170473 352.903406,20.1136382 L352.954542,20.2329562 C353.181814,20.1420472 353.312496,20.1420472 353.57386,20.1420472 L357.943174,20.1420472 Z" id="2" fill="#1400c3"></path>
                <path d="M691.698861,16.8863571 L691.698861,15.0113589 L692.744315,15.0113589 C693.914768,15.0113589 694.528404,14.2443141 694.528404,13.278406 C694.528404,12.3806795 693.92045,11.7215893 692.869314,11.7215893 C691.965906,11.7215893 691.25568,12.2556797 691.25568,13.0852243 L689.142045,13.0852243 C689.142045,11.2329534 690.704544,10 692.812496,10 C695.073858,10 696.636356,11.1306807 696.636356,13.2443151 C696.636356,14.2443141 696.011357,15.3352222 694.835222,15.8920398 C696.193175,16.340903 696.840902,17.3579475 696.840902,18.6079463 C696.840902,20.7272625 695.073858,21.9545341 692.795451,21.9545341 C690.852271,21.9545341 689,20.9318078 689,18.7215826 L691.147725,18.7215826 C691.147725,19.6022636 691.846588,20.2045357 692.846587,20.2045357 C693.948859,20.2045357 694.698858,19.5738545 694.698858,18.5795373 C694.698858,17.3409021 693.931813,16.8863571 692.744315,16.8863571 L691.698861,16.8863571 Z" id="3" fill="#1400c3"></path>
                <path d="M676.231786,16.5 L370,16.5" id="Line" stroke="#1400c3" stroke-linecap="square" fill-rule="nonzero"></path>
                <path d="M338,16.5 L31.77,16.5" id="Line-Copy" stroke="#1400c3" stroke-linecap="square" fill-rule="nonzero"></path>
            </g>
        </g>
    </g>
</svg>