<?xml version="1.0" encoding="UTF-8"?>
<svg width="178px" height="177px" viewBox="0 0 178 177" version="1.1" xmlns="http://www.w3.org/2000/svg" xmlns:xlink="http://www.w3.org/1999/xlink">
    <!-- Generator: Sketch 48.2 (47327) - http://www.bohemiancoding.com/sketch -->
    <title>na-guides</title>
    <desc>Created with Sketch.</desc>
    <defs>
        <linearGradient x1="100%" y1="100%" x2="0%" y2="0%" id="linearGradient-1">
            <stop stop-color="#B979F4" offset="0%"></stop>
            <stop stop-color="#5D2BFF" offset="100%"></stop>
        </linearGradient>
        <path d="M39.4680959,172.258113 C38.1220693,172.58071 36.7645873,171.744242 36.443832,170.402468 L5.19596948,38.9057419 C4.87521422,37.5668226 5.71433288,36.213629 7.05749552,35.8938871 L138.970959,4.74759677 C140.316985,4.425 141.677331,5.26146774 141.992359,6.60324194 L173.245949,138.094258 C173.56384,139.433177 172.724722,140.786371 171.378695,141.111823 L39.4680959,172.258113 L39.4680959,172.258113 Z" id="path-2"></path>
        <filter x="-27.6%" y="-27.7%" width="155.3%" height="155.5%" filterUnits="objectBoundingBox" id="filter-3">
            <feGaussianBlur stdDeviation="34.5" in="SourceAlpha" result="shadowBlurInner1"></feGaussianBlur>
            <feOffset dx="-16" dy="-24" in="shadowBlurInner1" result="shadowOffsetInner1"></feOffset>
            <feComposite in="shadowOffsetInner1" in2="SourceAlpha" operator="arithmetic" k2="-1" k3="1" result="shadowInnerInner1"></feComposite>
            <feColorMatrix values="0 0 0 0 0   0 0 0 0 0   0 0 0 0 0  0 0 0 0.100118886 0" type="matrix" in="shadowInnerInner1"></feColorMatrix>
        </filter>
    </defs>
    <g id="LP_homepage_M_D_2.5.1" stroke="none" stroke-width="1" fill="none" fill-rule="evenodd" transform="translate(-930.000000, -4305.000000)">
        <g id="na-guides" transform="translate(930.000000, 4305.000000)">
            <g id="Group">
                <path d="M9.01733266,148.328044 C7.57312883,148.088027 6.58077491,146.725078 6.81527929,145.287837 L29.5479055,3.92678878 C29.7795501,2.48669078 31.1493988,1.49805208 32.5907429,1.72663906 L174.068382,24.4396132 C175.512585,24.6739149 176.504939,26.0425795 176.270435,27.4798201 L153.537809,168.835154 C153.306164,170.280966 151.936315,171.269605 150.494971,171.038161 L9.01733266,148.328044 L9.01733266,148.328044 Z" id="Shape" fill="#CCCCCC"></path>
                <g>
                    <g id="Shape">
                        <use fill="url(#linearGradient-1)" fill-rule="evenodd" xlink:href="#path-2"></use>
                        <use fill="black" fill-opacity="1" filter="url(#filter-3)" xlink:href="#path-2"></use>
                    </g>
                    <path d="M137.88841,0.196983871 L5.97494653,31.3489839 C2.10870014,32.2568226 -0.288372629,36.1279839 0.633798734,39.984871 L31.8816613,171.475887 C32.8038326,175.335629 36.6786707,177.722274 40.547781,176.800161 L172.461244,145.653871 C176.333218,144.740323 178.724563,140.869161 177.799528,137.012274 L146.557393,5.52125806 C145.635222,1.66437097 141.763248,-0.716564516 137.88841,0.196983871 L137.88841,0.196983871 Z M137.934232,9.78924194 L158.239185,95.2060161 L30.5585458,125.358823 L10.2535925,39.9420484 L137.934232,9.78924194 L137.934232,9.78924194 Z" id="Shape" fill="#E8E8E8"></path>
                    <path d="M40.5506448,176.803016 L48.4893374,174.930242 L87.4926038,111.918242 L30.5556819,125.361677 L10.2507287,39.9449032 L137.931368,9.79209677 L141.471131,24.6857903 L148.433239,13.4434355 L146.557393,5.52696774 C145.635222,1.66722581 141.760384,-0.713709677 137.88841,0.202693548 L5.97494653,31.3546935 C2.10870014,32.2625323 -0.288372629,36.1336935 0.633798734,39.9905806 L31.8816613,171.481597 C32.8066965,175.335629 36.6786707,177.722274 40.5506448,176.803016 L40.5506448,176.803016 Z" id="Shape" fill="#F2F2F2"></path>
                    <ellipse id="Oval" fill="#EAE4BE" cx="61.2295529" cy="34.9049025" rx="1" ry="1"></ellipse>
                    <path d="M72.3225985,35.4885 C72.5202067,36.3192581 71.9989794,37.1614355 71.1627246,37.3612742 C70.3264699,37.5554032 69.4844873,37.0443871 69.2840153,36.2079194 C69.0864071,35.3657419 69.6019066,34.5235645 70.4467531,34.3294355 C71.2772801,34.1381613 72.1192626,34.6520323 72.3225985,35.4885 L72.3225985,35.4885 Z" id="Shape" fill="#EAE4BE"></path>
                    <ellipse id="Oval" fill="#EAE4BE" cx="77.9758641" cy="25.9047608" rx="1" ry="1"></ellipse>
                    <ellipse id="Oval" fill="#EAE4BE" cx="88.0138311" cy="41.6206935" rx="1.65819012" ry="1.65295161"></ellipse>
                    <ellipse id="Oval" fill="#EAE4BE" cx="61.0620843" cy="43.302479" rx="1" ry="1"></ellipse>
                    <ellipse id="Oval" fill="#EAE4BE" cx="73.3049115" cy="44.0872742" rx="1.26870159" ry="1.26469355"></ellipse>
                    <ellipse id="Oval" fill="#EAE4BE" cx="47.140447" cy="37.9893387" rx="1" ry="1"></ellipse>
                    <rect id="Rectangle-path" fill="#E8E8E8" transform="translate(96.973365, 112.042004) rotate(-13.326145) translate(-96.973365, -112.042004) " x="28.8754769" y="108.684624" width="136.195777" height="6.71476147"></rect>
                </g>
            </g>
            <g id="Balance-2" opacity="0.485790308" style="mix-blend-mode: multiply;" transform="translate(85.500000, 68.000000) rotate(-15.000000) translate(-85.500000, -68.000000) translate(63.000000, 45.000000)" fill="#323648" fill-rule="nonzero">
                <path d="M23.0501817,40.0857143 C22.586173,40.0857143 22.2768339,39.7781155 22.2768339,39.3167173 L22.2768339,7.48024316 C20.5754689,8.7106383 17.6367475,9.17203647 14.8526957,9.47963526 C11.6046352,10.0948328 7.89256604,10.556231 7.58322695,12.2480243 L14.388687,23.6291793 C14.5433566,23.9367781 14.5433566,24.0905775 14.388687,24.3981763 C14.2340175,24.7057751 14.0793479,24.7057751 13.7700088,24.7057751 L1.39644506,24.7057751 C1.08710596,24.7057751 0.932436414,24.5519757 0.777766866,24.3981763 C0.623097319,24.2443769 0.623097319,23.9367781 0.777766866,23.6291793 L6.03653147,12.2480243 C6.19120102,9.32583587 10.5219483,8.7106383 14.5433566,7.94164134 C18.4100953,7.32644377 22.2768339,6.7112462 22.2768339,4.7118541 C22.2768339,4.25045593 22.586173,3.94285714 23.0501817,3.94285714 C23.5141903,3.94285714 23.8235294,4.25045593 23.8235294,4.7118541 L23.8235294,39.3167173 C23.8235294,39.7781155 23.5141903,40.0857143 23.0501817,40.0857143 Z M2.63380143,23.1677812 L12.3779829,23.1677812 L6.96454876,14.093617 L2.63380143,23.1677812 Z" id="Shape"></path>
                <path d="M22.1691176,34.1714286 C18.4632353,34.1714286 15.2205882,30.8594286 15.2205882,27.0742857 C15.2205882,26.6011429 15.5294118,26.2857143 15.9926471,26.2857143 C16.4558824,26.2857143 16.7647059,26.6011429 16.7647059,27.0742857 C16.7647059,29.9131429 19.3897059,32.5942857 22.1691176,32.5942857 C24.9485294,32.5942857 27.5735294,29.9131429 27.5735294,27.0742857 C27.5735294,26.6011429 27.8823529,26.2857143 28.3455882,26.2857143 C28.8088235,26.2857143 29.1176471,26.6011429 29.1176471,27.0742857 C29.1176471,30.8594286 25.875,34.1714286 22.1691176,34.1714286 Z" id="Shape"></path>
                <path d="M33.6397059,46 L12.0220588,46 C11.5588235,46 11.25,45.6845714 11.25,45.2114286 C11.25,41.2685714 17.4264706,38.1142857 22.8308824,38.1142857 C28.2352941,38.1142857 34.4117647,41.2685714 34.4117647,45.2114286 C34.4117647,45.6845714 34.1029412,46 33.6397059,46 Z M12.9485294,44.4228571 L32.7132353,44.4228571 C31.9411765,41.8994286 27.3088235,39.6914286 22.8308824,39.6914286 C18.3529412,39.6914286 13.7205882,41.8994286 12.9485294,44.4228571 Z" id="Shape"></path>
                <path d="M6.94852941,30.8857143 C3.24264706,30.8857143 0,27.8497143 0,24.38 C0,23.9462857 0.308823529,23.6571429 0.772058824,23.6571429 C1.23529412,23.6571429 1.54411765,23.9462857 1.54411765,24.38 C1.54411765,26.9822857 4.16911765,29.44 6.94852941,29.44 C9.72794118,29.44 12.3529412,26.9822857 12.3529412,24.38 C12.3529412,23.9462857 12.6617647,23.6571429 13.125,23.6571429 C13.5882353,23.6571429 13.8970588,23.9462857 13.8970588,24.38 C13.8970588,27.8497143 10.6544118,30.8857143 6.94852941,30.8857143 Z" id="Shape"></path>
                <path d="M44.2653197,24.9714286 L31.8917559,24.9714286 C31.5824168,24.9714286 31.4277472,24.8156614 31.2730777,24.6598942 C31.1184081,24.3483598 31.1184081,24.1925926 31.2730777,23.8810582 L37.30519,12.3542857 C37.1505205,10.6408466 33.7477904,10.173545 30.4997299,9.55047619 C26.3236522,8.77164021 21.8382353,8.14857143 21.8382353,4.72169312 C21.8382353,4.25439153 22.1475744,3.94285714 22.611583,3.94285714 C23.0755917,3.94285714 23.3849308,4.25439153 23.3849308,4.72169312 C23.3849308,6.90243386 27.0969999,7.52550265 30.6543995,7.99280423 C34.5211382,8.61587302 38.5425464,9.2389418 38.8518855,12.1985185 L44.8839978,23.725291 C45.0386674,24.0368254 45.0386674,24.1925926 44.8839978,24.504127 C44.7293283,24.8156614 44.5746587,24.9714286 44.2653197,24.9714286 Z M33.1291122,23.4137566 L42.8732937,23.4137566 L38.0785378,14.2234921 L33.1291122,23.4137566 Z" id="Shape"></path>
                <path d="M38.0514706,30.8857143 C34.3455882,30.8857143 31.1029412,27.8497143 31.1029412,24.38 C31.1029412,23.9462857 31.4117647,23.6571429 31.875,23.6571429 C32.3382353,23.6571429 32.6470588,23.9462857 32.6470588,24.38 C32.6470588,26.9822857 35.2720588,29.44 38.0514706,29.44 C40.8308824,29.44 43.4558824,26.9822857 43.4558824,24.38 C43.4558824,23.9462857 43.7647059,23.6571429 44.2279412,23.6571429 C44.6911765,23.6571429 45,23.9462857 45,24.38 C45,27.8497143 41.7573529,30.8857143 38.0514706,30.8857143 Z" id="Shape"></path>
                <path d="M22.8308824,4.6 C21.5955882,4.6 20.5147059,3.52666667 20.5147059,2.3 C20.5147059,1.07333333 21.5955882,0 22.8308824,0 C24.0661765,0 25.1470588,1.07333333 25.1470588,2.3 C25.1470588,3.52666667 24.0661765,4.6 22.8308824,4.6 Z M22.8308824,1.53333333 C22.3676471,1.53333333 22.0588235,1.84 22.0588235,2.3 C22.0588235,2.76 22.3676471,3.06666667 22.8308824,3.06666667 C23.2941176,3.06666667 23.6029412,2.76 23.6029412,2.3 C23.6029412,1.84 23.2941176,1.53333333 22.8308824,1.53333333 Z" id="Shape"></path>
            </g>
        </g>
    </g>
</svg>