<?xml version="1.0" encoding="UTF-8"?>
<svg width="24px" height="24px" viewBox="0 0 24 24" version="1.1" xmlns="http://www.w3.org/2000/svg" xmlns:xlink="http://www.w3.org/1999/xlink">
    <!-- Generator: Sketch 51.3 (57544) - http://www.bohemiancoding.com/sketch -->
    <title>fic-box</title>
    <desc>Created with Sketch.</desc>
    <defs>
        <linearGradient x1="50%" y1="0%" x2="50%" y2="100%" id="linearGradient-1">
            <stop stop-color="#8CA0B3" offset="0%"></stop>
            <stop stop-color="#A2B6C9" offset="100%"></stop>
        </linearGradient>
    </defs>
    <g id="ASSO-Webapp" stroke="none" stroke-width="1" fill="none" fill-rule="evenodd">
        <g id="Footer_M_D_1.0" transform="translate(-128.000000, -684.000000)" fill-rule="nonzero">
            <g id="fic-box" transform="translate(128.000000, 684.000000)">
                <rect id="Rectangle-3-Copy" x="0" y="0" width="24" height="24"></rect>
                <path d="M21.7775655,17.1825839 C21.778424,17.1695633 21.7818582,17.1574106 21.7818582,17.1435217 L21.7818582,6.45507727 C21.7818582,6.45073705 21.7809996,6.4463966 21.7801411,6.44205638 C21.7801411,6.43424393 21.7809996,6.42643149 21.7809996,6.4186186 C21.7801411,6.39778527 21.776707,6.37782082 21.7741314,6.35785416 C21.7715558,6.33528527 21.7698389,6.31271638 21.7646877,6.29014527 C21.7603952,6.27191593 21.753527,6.25455416 21.748376,6.23719416 C21.7406495,6.21288749 21.7337813,6.18858305 21.7234793,6.16514527 C21.7217624,6.16167282 21.720904,6.15820082 21.7200455,6.15472838 C21.7131774,6.14083949 21.7037336,6.12868616 21.6968653,6.11479727 C21.6848459,6.09309593 21.6736851,6.07226171 21.6599488,6.05229727 C21.647071,6.03493616 21.6333356,6.0193106 21.6195993,6.00281727 C21.6058631,5.98632393 21.5921268,5.9698306 21.5758147,5.95420616 C21.5595029,5.93858105 21.5414741,5.92469282 21.5234455,5.9116706 C21.5071338,5.89951793 21.4916807,5.88649727 21.4745092,5.87521282 C21.4539048,5.86219193 21.431584,5.85177505 21.4092609,5.8404906 C21.3955246,5.83354616 21.3835048,5.82486571 21.3689114,5.81965727 L12.0686916,2.04787949 C12.0558138,2.04267105 12.0420785,2.04093505 12.0283422,2.0357266 C12.001729,2.02704616 11.975973,2.01836549 11.9485004,2.01228882 C11.9287545,2.00794838 11.9098675,2.00794838 11.8901224,2.00534438 C11.8669422,2.00274016 11.8446213,1.99926793 11.8205818,2.00013593 C11.7991187,2.00013593 11.7776565,2.00360816 11.7561927,2.00534438 C11.7347299,2.00794838 11.7141246,2.00881638 11.6935202,2.01228882 C11.6686235,2.01749705 11.6454433,2.02617771 11.6214059,2.03399016 C11.6059525,2.03919838 11.5896411,2.0418026 11.5741884,2.04787905 L7.62407846,3.67374571 C7.59746527,3.68242616 7.57256637,3.69371105 7.54681253,3.70586349 L2.41208725,5.82044127 C2.41122879,5.82130927 2.40951165,5.82217749 2.40865319,5.82217749 C2.39234132,5.82912193 2.37774769,5.8386706 2.36229275,5.84648416 C2.34340549,5.8560326 2.32451912,5.86558127 2.30734769,5.87686638 C2.30305516,5.8794706 2.29790418,5.88207482 2.29275297,5.88467905 C2.27987516,5.89335949 2.26957275,5.90464416 2.25669582,5.91419238 C2.23952549,5.92808127 2.22235516,5.94110127 2.20604308,5.95585905 C2.18973121,5.97148416 2.17599473,5.98884571 2.16140132,6.00533905 C2.14766505,6.02096393 2.13478813,6.03572127 2.12276835,6.05308127 C2.12019275,6.05742149 2.11590022,6.06089393 2.11332462,6.06523416 C2.10388088,6.07912305 2.09701275,6.09561638 2.08928505,6.11037193 C2.08756791,6.11384416 2.08585099,6.11644838 2.08413407,6.11905238 C2.07726593,6.13207327 2.0678222,6.14335905 2.06181319,6.15724793 C2.06009604,6.16072016 2.06009604,6.16332438 2.05837912,6.1659286 C2.05065253,6.18415771 2.04464286,6.20325527 2.03863319,6.22148416 C2.03691626,6.2275606 2.03434066,6.23363682 2.03262352,6.24058127 C2.02747253,6.25794238 2.0206044,6.27530349 2.01631187,6.29266571 C2.01545341,6.29526993 2.01459473,6.29787416 2.01373626,6.30134638 C2.01201912,6.31089505 2.01201912,6.32131149 2.0103022,6.33085971 C2.00858527,6.34127638 2.00772659,6.35169305 2.00686813,6.3621086 C2.00429253,6.38207393 2.00085846,6.40203971 2,6.42200416 L2,6.43415682 L2,6.43762905 L2,17.1425179 C2,17.1485944 2.00171714,17.1538026 2.00171714,17.159879 C1.99227341,17.4255013 2.13993912,17.6833235 2.39578308,17.7953013 L11.6960029,21.9019679 C11.7002956,21.9037039 11.7045881,21.9045719 11.7088807,21.9063082 C11.7415048,21.920197 11.7749862,21.9306148 11.8093268,21.9384259 C11.8204875,21.9410302 11.8307897,21.9436344 11.8410916,21.9453704 C11.8797246,21.9523148 11.9183576,21.9575233 11.9569905,21.9575233 L11.9587077,21.9575233 L11.9604248,21.9575233 C11.9681514,21.9575233 11.975878,21.955787 11.9836051,21.955787 C11.9896147,21.955787 11.9947659,21.9575233 12.0007754,21.9575233 C12.1458655,21.9575233 12.2780721,21.9089122 12.3871051,21.8290522 L21.3868853,17.8377188 C21.6487314,17.7213988 21.7955446,17.4540299 21.7775007,17.182341 L21.7775655,17.1825839 Z M7.81207099,5.03769505 L15.1995435,8.50991727 L11.9569062,10.0472506 L4.31514791,6.47702838 L7.81207099,5.03769505 Z M11.8248182,3.38578393 L19.4681149,6.48556171 L16.7569062,7.77116171 L9.48020286,4.35093949 L11.8248182,3.38578393 Z M3.31954352,7.4804506 L11.3415215,11.2277839 L11.3415215,20.2902284 L3.31954352,16.7484506 L3.31954352,7.4804506 Z M12.6602029,11.1871173 L20.4624007,7.48756171 L20.4624007,16.7922284 L12.6602029,20.2531173 L12.6602029,11.1871173 Z" id="Shape" fill="url(#linearGradient-1)"></path>
            </g>
        </g>
    </g>
</svg>